<svg id="tastes" xmlns="http://www.w3.org/2000/svg" viewBox="0 0 96 96" width="32" height="32">
<defs><style>.cls-1{fill:#333;}</style></defs>
<g>
    <path class="cls-1" d="M69.28,96H57a4,4,0,0,1-4-4V9.93a4,4,0,0,1,.53-2C54,7.11,58.4-.19,64.91,0c4,.12,7.36,2.86,10,8.15C82.28,22.94,83,55.45,83,56.82a4,4,0,0,1-3,4l-6.71,1.7V92A4,4,0,0,1,69.28,96ZM61,88h4.28V59.37a4,4,0,0,1,3-3.88l6.6-1.67c-.36-8.41-1.81-31.39-7.14-42.1C66.29,8.81,65.1,8,64.67,8c-.87-.06-2.55,1.53-3.67,3.1ZM45,0a4,4,0,0,0-4,4V30.81A6.2,6.2,0,0,1,35,37V4a4,4,0,0,0-8,0V37H27A6,6,0,0,1,21,31.05V4a4,4,0,0,0-8,0V31.05A14,14,0,0,0,27,45H27V92a4,4,0,0,0,8,0V45A14.2,14.2,0,0,0,49,30.81V4A4,4,0,0,0,45,0Z"/>
</g>
</svg>
